<svg id="Capa_1" enable-background="new 0 0 512 512" height="512" viewBox="0 0 512 512" width="512" xmlns="http://www.w3.org/2000/svg" xmlns:xlink="http://www.w3.org/1999/xlink"><linearGradient id="SVGID_1_" gradientUnits="userSpaceOnUse" x1="256" x2="256" y1="512" y2="0"><stop offset="0" stop-color="#c3ffe8"/><stop offset=".9973" stop-color="#f0fff4"/></linearGradient><linearGradient id="SVGID_2_" gradientUnits="userSpaceOnUse" x1="256" x2="256" y1="391" y2="121"><stop offset="0" stop-color="#00b59c"/><stop offset="1" stop-color="#9cffac"/></linearGradient><g><g><g><path d="m286 0h-60c-8.291 0-15 6.709-15 15s6.709 15 15 15h60c8.291 0 15-6.709 15-15s-6.709-15-15-15zm0 482h-60c-8.291 0-15 6.709-15 15s6.709 15 15 15h60c8.291 0 15-6.709 15-15s-6.709-15-15-15zm-131.514-461.84-51.973 30c-7.178 4.146-9.639 13.315-5.493 20.493 4.192 7.237 13.395 9.593 20.493 5.493l51.973-30c7.178-4.146 9.638-13.315 5.493-20.493-4.16-7.177-13.374-9.653-20.493-5.493zm240 415.694-51.973 30c-7.178 4.146-9.639 13.315-5.493 20.493 4.192 7.237 13.395 9.593 20.493 5.493l51.973-30c7.178-4.146 9.638-13.315 5.493-20.493-4.16-7.178-13.344-9.639-20.493-5.493zm-323.833-338.833c-7.192-4.16-16.362-1.685-20.493 5.493l-30 51.973c-4.146 7.178-1.685 16.348 5.493 20.493 7.109 4.106 16.308 1.732 20.493-5.493l30-51.973c4.146-7.178 1.685-16.348-5.493-20.493zm415.694 240c-7.192-4.175-16.362-1.699-20.493 5.493l-30 51.973c-4.146 7.178-1.685 16.348 5.493 20.493 7.109 4.106 16.308 1.732 20.493-5.493l30-51.973c4.145-7.178 1.684-16.348-5.493-20.493zm-456.347-51.021v-60c0-8.291-6.709-15-15-15s-15 6.709-15 15v60c0 8.291 6.709 15 15 15s15-6.709 15-15zm467-75c-8.291 0-15 6.709-15 15v60c0 8.291 6.709 15 15 15s15-6.709 15-15v-60c0-8.291-6.709-15-15-15zm-450.854 131.514c-4.175-7.192-13.359-9.668-20.493-5.493-7.178 4.146-9.639 13.315-5.493 20.493l30 51.973c4.192 7.237 13.395 9.593 20.493 5.493 7.178-4.146 9.639-13.315 5.493-20.493zm419.708-173.028c4.192 7.237 13.395 9.593 20.493 5.493 7.178-4.146 9.639-13.315 5.493-20.493l-30-51.973c-4.175-7.178-13.345-9.653-20.493-5.493-7.178 4.146-9.639 13.315-5.493 20.493zm-296.368 296.368-51.973-30c-7.163-4.146-16.348-1.685-20.493 5.493-4.146 7.178-1.685 16.348 5.493 20.493l51.973 30c7.109 4.106 16.308 1.732 20.493-5.493 4.145-7.178 1.685-16.348-5.493-20.493zm240-415.694-51.973-30c-7.178-4.16-16.348-1.685-20.493 5.493-4.146 7.178-1.685 16.348 5.493 20.493l51.973 30c7.109 4.106 16.308 1.732 20.493-5.493 4.145-7.177 1.685-16.347-5.493-20.493z" fill="url(#SVGID_1_)"/></g></g><g><g><circle cx="256" cy="256" fill="url(#SVGID_2_)" r="135"/></g></g></g></svg>